<svg width="158" height="160" viewBox="0 0 158 160" fill="none" xmlns="http://www.w3.org/2000/svg">
<path d="M79 159.53C68.0717 159.53 57.8017 157.436 48.19 153.249C38.5783 149.061 30.2175 143.378 23.1075 136.199C15.9975 129.02 10.3688 120.578 6.22125 110.873C2.07375 101.169 0 90.7992 0 79.765C0 68.7308 2.07375 58.3614 6.22125 48.6567C10.3688 38.9519 15.9975 30.5101 23.1075 23.3313C30.2175 16.1524 38.5783 10.4692 48.19 6.28149C57.8017 2.09383 68.0717 0 79 0C89.9283 0 100.198 2.09383 109.81 6.28149C119.422 10.4692 127.783 16.1524 134.893 23.3313C142.003 30.5101 147.631 38.9519 151.779 48.6567C155.926 58.3614 158 68.7308 158 79.765V90.3339C158 97.7786 155.4 104.06 150.199 109.178C144.998 114.297 138.645 116.856 131.14 116.856C126.4 116.856 121.923 115.692 117.71 113.366C113.497 111.04 110.271 107.749 108.033 103.495C104.609 108.015 100.33 111.372 95.195 113.565C90.06 115.759 84.6617 116.856 79 116.856C68.73 116.856 60.0071 113.266 52.8313 106.087C45.6554 98.9086 42.0675 90.1344 42.0675 79.765C42.0675 69.3955 45.6554 60.5549 52.8313 53.2431C60.0071 45.9313 68.73 42.2754 79 42.2754C89.27 42.2754 97.9929 45.9313 105.169 53.2431C112.345 60.5549 115.933 69.3955 115.933 79.765V90.3339C115.933 94.4551 117.414 97.9115 120.376 100.703C123.339 103.495 126.927 104.891 131.14 104.891C135.222 104.891 138.744 103.495 141.706 100.703C144.669 97.9115 146.15 94.4551 146.15 90.3339V79.765C146.15 60.8873 139.633 44.8678 126.598 31.7066C113.562 18.5454 97.6967 11.9647 79 11.9647C60.3033 11.9647 44.4375 18.5454 31.4025 31.7066C18.3675 44.8678 11.85 60.8873 11.85 79.765C11.85 98.6427 18.3675 114.662 31.4025 127.823C44.4375 140.985 60.3033 147.565 79 147.565H115.34C117.052 147.565 118.467 148.13 119.586 149.26C120.705 150.39 121.265 151.819 121.265 153.548C121.265 155.276 120.705 156.705 119.586 157.835C118.467 158.965 117.052 159.53 115.34 159.53H79ZM79 104.891C85.9783 104.891 91.9033 102.465 96.775 97.6124C101.647 92.76 104.083 86.8109 104.083 79.765C104.083 72.5862 101.647 66.5373 96.775 61.6185C91.9033 56.6996 85.9783 54.2402 79 54.2402C72.0217 54.2402 66.0967 56.6996 61.225 61.6185C56.3533 66.5373 53.9175 72.5862 53.9175 79.765C53.9175 86.8109 56.3533 92.76 61.225 97.6124C66.0967 102.465 72.0217 104.891 79 104.891Z" fill="white"/>
</svg>
