<svg width="113" height="160" viewBox="0 0 113 160" fill="none" xmlns="http://www.w3.org/2000/svg">
<path d="M56.4706 0C71.4475 0 85.8111 5.94956 96.4013 16.5399C106.992 27.1301 112.941 41.4937 112.941 56.4706C112.941 77.3647 101.553 95.6236 84.7059 105.412V122.353C84.7059 124.849 83.7143 127.243 81.9492 129.008C80.1842 130.773 77.7903 131.765 75.2941 131.765H37.6471C35.1509 131.765 32.757 130.773 30.9919 129.008C29.2269 127.243 28.2353 124.849 28.2353 122.353V105.412C11.3882 95.6236 0 77.3647 0 56.4706C0 41.4937 5.94956 27.1301 16.5399 16.5399C27.1301 5.94956 41.4937 0 56.4706 0ZM75.2941 141.176V150.588C75.2941 153.084 74.3025 155.478 72.5375 157.243C70.7724 159.008 68.3785 160 65.8823 160H47.0588C44.5627 160 42.1688 159.008 40.4037 157.243C38.6387 155.478 37.6471 153.084 37.6471 150.588V141.176H75.2941ZM47.0588 112.941H65.8823V92.8941C82.1647 88.753 94.1177 73.9765 94.1177 56.4706C94.1177 46.486 90.1513 36.9103 83.0911 29.8501C76.0309 22.7899 66.4552 18.8235 56.4706 18.8235C46.486 18.8235 36.9103 22.7899 29.8501 29.8501C22.7899 36.9103 18.8235 46.486 18.8235 56.4706C18.8235 73.9765 30.7765 88.753 47.0588 92.8941V112.941Z" fill="white"/>
</svg>
