<svg width="74" height="81" viewBox="0 0 74 81" fill="none" xmlns="http://www.w3.org/2000/svg">
<path d="M39.2619 2C40.4233 3.13659 41.4699 4.12257 42.4701 5.13915C48.8701 11.6386 55.2784 18.1311 61.6484 24.6517C65.3157 28.4074 68.9229 32.2055 72.5301 36.0058C72.7788 36.2694 72.9017 36.693 72.9072 37.0436C72.9482 39.6015 72.9509 42.1594 72.9509 44.7173C72.9509 44.9597 72.8498 45.2021 72.7979 45.4445C72.5601 45.2986 72.2896 45.1786 72.0901 44.9997C68.4091 41.6464 64.7309 38.2908 61.069 34.9234C54.1416 28.551 47.225 22.1715 40.2976 15.7967C39.628 15.1802 39.1416 14.5283 39.1444 13.6271C39.158 9.982 39.1307 6.33456 39.1225 2.68948C39.1198 2.52947 39.1826 2.3671 39.2619 2Z" stroke="black" stroke-width="2"/>
<path d="M72.9754 75.4569C72.9754 76.3982 72.9207 77.3395 72.9918 78.2761C73.0519 79.0714 72.7841 79.1608 71.9697 78.8808C68.1111 77.5442 64.2279 76.2617 60.3693 74.9322C53.7233 72.6425 47.091 70.3176 40.434 68.0491C39.4393 67.7103 39.1114 67.2137 39.1251 66.3337C39.177 62.8674 39.1579 59.4012 39.1825 55.9349C39.1907 54.8972 39.2071 54.909 40.2236 55.4149C48.0119 59.3047 55.8111 63.1804 63.5939 67.0773C66.4824 68.5245 69.3518 70.0023 72.202 71.5036C72.5053 71.6636 72.7841 72.0684 72.8059 72.3743C72.8797 73.3979 72.8333 74.4286 72.8333 75.4569C72.8852 75.4569 72.9289 75.4569 72.9754 75.4569Z" stroke="black" stroke-width="2"/>
<path d="M39.1029 43.0231C39.1029 41.3476 39.0947 39.6721 39.1111 37.9967C39.1138 37.719 39.215 37.4437 39.2696 37.1683C39.5565 37.3001 39.8817 37.3966 40.1277 37.5707C43.4479 39.9216 46.7518 42.2936 50.0748 44.642C57.404 49.8261 64.7386 55.0055 72.0869 60.1683C72.7565 60.639 73.0188 61.1308 72.986 61.8885C72.9095 63.6487 72.9368 65.4159 72.9778 67.1785C72.9969 67.955 72.6936 67.9691 72.0514 67.602C67.9878 65.2771 63.927 62.9522 59.8552 60.6413C55.4118 58.1187 50.9657 55.5985 46.5031 53.097C44.3607 51.8946 42.1936 50.7203 40.0156 49.5673C39.3625 49.2213 39.0865 48.8095 39.1056 48.1365C39.1548 46.4328 39.122 44.7268 39.122 43.0231C39.1138 43.0231 39.1084 43.0231 39.1029 43.0231Z" stroke="black" stroke-width="2"/>
<path d="M39.2837 19.9148C43.104 23.3199 46.7331 26.5861 50.4059 29.817C54.7974 33.6786 59.2298 37.5048 63.6377 41.3523C66.559 43.9031 69.483 46.4516 72.3579 49.0401C72.7076 49.3555 72.9017 49.9132 72.9181 50.3673C72.9864 52.2169 72.9591 54.0689 72.9563 55.9208C72.9563 56.142 72.8771 56.3609 72.8334 56.5821C72.5737 56.4715 72.2731 56.4009 72.0573 56.2432C68.584 53.683 65.0997 51.1345 61.6592 48.5389C54.7564 43.3313 47.9327 38.0437 40.9506 32.9161C39.5515 31.8878 39.0869 30.8618 39.117 29.4122C39.1743 26.739 39.1224 24.0635 39.1334 21.3879C39.1388 20.9314 39.2263 20.4749 39.2837 19.9148Z" stroke="black" stroke-width="2"/>
<path d="M33.3618 62.7403C33.3618 64.1217 33.299 65.5053 33.3837 66.8843C33.4466 67.9079 33.053 68.4821 31.8971 68.8469C27.604 70.2023 23.3437 71.6307 19.0697 73.0261C13.8693 74.7251 8.69077 76.4806 3.45487 78.0925C0.476196 79.0102 1.09926 78.9726 1.02821 76.6782C0.992681 75.5605 1.03367 74.4427 1.00088 73.3273C0.984483 72.7414 1.1949 72.3578 1.83436 72.0613C7.33261 69.5105 12.8145 66.9384 18.2936 64.3593C22.9638 62.1615 27.6231 59.9448 32.2906 57.7398C33.381 57.2245 33.3919 57.241 33.3837 58.3328C33.37 59.8012 33.381 61.272 33.381 62.7403C33.3728 62.738 33.3673 62.738 33.3618 62.7403Z" stroke="black" stroke-width="2"/>
<path d="M33.4082 40.1027C33.4082 42.3453 33.4109 44.3596 33.4055 46.374C33.4027 47.4023 33.3918 48.4306 33.3727 49.459C33.3618 50.139 33.0858 50.6144 32.3261 51.0097C26.7814 53.8994 21.2858 56.8574 15.7575 59.7706C11.336 62.1003 6.90076 64.4087 2.45188 66.696C1.1429 67.3691 1.10464 67.3196 1.08552 66.0466C1.06365 64.7547 1.009 63.4604 1.04999 62.1685C1.06092 61.8391 1.26861 61.4037 1.55828 61.2084C7.17403 57.4292 12.8198 53.6806 18.4493 49.9178C22.7615 47.0376 27.0574 44.1431 31.3723 41.2675C31.9298 40.8981 32.5474 40.5945 33.4082 40.1027Z" stroke="black" stroke-width="2"/>
<path d="M33.3265 23.7152C33.3457 23.9999 33.3839 24.2847 33.3784 24.5694C33.3429 27.3014 33.3129 30.0358 33.2391 32.7679C33.2309 33.0785 33.0751 33.4879 32.8155 33.6786C27.6343 37.4578 22.4612 41.2487 17.2171 44.9621C12.9458 47.9859 8.58168 50.9086 4.25577 53.8736C3.56439 54.3489 2.88121 54.8407 2.14611 55.2619C1.60229 55.5726 1.17052 55.4949 1.15686 54.8078C1.12953 53.4853 1.04755 52.1628 1.06395 50.8427C1.06668 50.5368 1.2935 50.1626 1.55584 49.9367C5.08925 46.9081 8.61174 43.8702 12.208 40.8981C17.7472 36.3165 23.3548 31.7937 28.905 27.2214C30.3315 26.0472 31.6596 24.7859 33.0314 23.5646C33.127 23.614 33.2281 23.6634 33.3265 23.7152Z" stroke="black" stroke-width="2"/>
<path d="M1.59659 39.0626C3.25263 37.5495 31.4598 11.6857 33.0995 10.1608C33.2061 10.1938 33.3126 10.2267 33.4192 10.262C33.4192 10.8668 33.4192 11.4716 33.4192 12.0787C33.4192 13.46 33.3673 14.8437 33.4356 16.2226C33.4875 17.2792 33.1596 18.0346 32.1922 18.8088C29.1971 21.2114 26.3606 23.7599 23.4611 26.2519C16.3834 32.3325 9.30835 38.4155 2.21965 44.4891C1.92452 44.7432 1.52281 44.9056 1.17302 45.1103C1.12656 44.7738 1.04458 44.4373 1.03912 44.0984C1.01725 42.8348 0.970798 41.5687 1.03638 40.3074C1.05825 39.8815 1.26593 39.3685 1.59659 39.0626Z" stroke="black" stroke-width="2"/>
</svg>
