<svg width="78" height="78" viewBox="0 0 78 78" fill="none" xmlns="http://www.w3.org/2000/svg">
<path d="M2.56886 78C1.90524 78 1.31121 77.7378 0.786773 77.2133C0.262258 76.6888 0 76.0948 0 75.4311V21.3683C0 20.765 0.262258 20.186 0.786773 19.6314C1.31121 19.0767 1.90524 18.7994 2.56886 18.7994H18.9162V2.56886C18.9162 1.90524 19.1784 1.31117 19.7028 0.786656C20.2273 0.262218 20.8214 0 21.485 0H56.6317C57.235 0 57.814 0.262218 58.3686 0.786656C58.9233 1.31117 59.2006 1.90524 59.2006 2.56886V37.7156H75.4311C76.0948 37.7156 76.6888 37.9778 77.2133 38.5022C77.7378 39.0267 78 39.6208 78 40.2844V75.4311C78 76.0948 77.7378 76.6888 77.2133 77.2133C76.6888 77.7378 76.0948 78 75.4311 78H47.1737V59.0838H30.8263V78H2.56886ZM2.56886 75.4311H18.9162V59.0838H2.56886V75.4311ZM2.56886 56.515H18.9162V40.2844H2.56886V56.515ZM2.56886 37.7156H18.9162V21.3683H2.56886V37.7156ZM21.485 56.515H37.7156V40.2844H21.485V56.515ZM21.485 18.7994H37.7156V2.56886H21.485V18.7994ZM40.2844 56.515H56.6317V40.2844H40.2844V56.515ZM40.2844 37.7156H56.6317V21.3683H40.2844V37.7156ZM40.2844 18.7994H56.6317V2.56886H40.2844V18.7994ZM59.2006 75.4311H75.4311V59.0838H59.2006V75.4311ZM59.2006 56.515H75.4311V40.2844H59.2006V56.515Z" fill="black"/>
</svg>
