<svg width="100" height="161" viewBox="0 0 100 161" fill="none" xmlns="http://www.w3.org/2000/svg">
<path d="M40.9091 76.6344L13.1818 152.812L12.5 153.946L6.81818 159.387C5.75758 160.445 4.62121 160.71 3.40909 160.181C2.19697 159.652 1.43939 158.707 1.13636 157.347L0 150.092C0 150.243 0.0757576 149.714 0.227273 148.504L28.8636 69.8329C30.5303 71.4955 32.3864 72.8558 34.4318 73.9138C36.4773 74.9718 38.6364 75.8787 40.9091 76.6344ZM58.6364 76.8612C60.9091 76.1054 63.1061 75.1985 65.2273 74.1405C67.3485 73.0825 69.2424 71.7222 70.9091 70.0596L99.7727 148.504C100.076 149.109 100.076 149.638 99.7727 150.092L98.8636 157.347C98.5606 158.707 97.803 159.652 96.5909 160.181C95.3788 160.71 94.2424 160.445 93.1818 159.387L87.5 153.946C87.0455 153.492 86.8182 153.114 86.8182 152.812L58.6364 76.8612ZM50 73.4604C42.4242 73.4604 35.9848 70.8153 30.6818 65.5252C25.3788 60.2351 22.7273 53.8114 22.7273 46.254C22.7273 39.9059 24.5833 34.2757 28.2955 29.3634C32.0076 24.4512 36.9697 21.3149 43.1818 19.9546V7.71174C43.1818 5.74684 43.8258 4.12201 45.1136 2.83727C46.4015 1.55253 48.0303 0.910156 50 0.910156C51.9697 0.910156 53.5985 1.55253 54.8864 2.83727C56.1742 4.12201 56.8182 5.74684 56.8182 7.71174V19.9546C63.0303 21.3149 67.9924 24.4512 71.7045 29.3634C75.4167 34.2757 77.2727 39.9059 77.2727 46.254C77.2727 53.8114 74.6212 60.2351 69.3182 65.5252C64.0152 70.8153 57.5758 73.4604 50 73.4604ZM50 59.8572C53.7879 59.8572 57.0076 58.5347 59.6591 55.8896C62.3106 53.2446 63.6364 50.0327 63.6364 46.254C63.6364 42.4754 62.3106 39.2635 59.6591 36.6185C57.0076 33.9734 53.7879 32.6509 50 32.6509C46.2121 32.6509 42.9924 33.9734 40.3409 36.6185C37.6894 39.2635 36.3636 42.4754 36.3636 46.254C36.3636 50.0327 37.6894 53.2446 40.3409 55.8896C42.9924 58.5347 46.2121 59.8572 50 59.8572Z" fill="white"/>
</svg>
