<svg width="29" height="160" viewBox="0 0 29 160" fill="none" xmlns="http://www.w3.org/2000/svg">
<path d="M16.5265 159.862C20.1038 159.83 23.0675 158.601 25.4174 156.175C27.7673 153.748 28.9267 150.757 28.8956 147.2L28.2369 71.8873C28.2058 68.3309 26.9698 65.3603 24.529 62.9757C22.0879 60.591 19.0788 59.4143 15.5017 59.4456C11.9244 59.4769 8.9607 60.7058 6.61078 63.1324C4.26086 65.559 3.10146 68.5505 3.13257 72.1069L3.7913 147.42C3.82241 150.976 5.05836 153.947 7.49918 156.331C9.94028 158.716 12.9494 159.893 16.5265 159.862ZM14.0414 28.494C17.9515 28.4598 21.2203 27.148 23.8477 24.5586C26.4752 21.9692 27.7723 18.7778 27.7392 14.9842C27.7039 10.9536 26.3519 7.58654 23.6832 4.88307C21.0142 2.1796 17.7247 0.844968 13.8149 0.879166C9.90476 0.913367 6.63667 2.30535 4.01062 5.05514C1.38457 7.80492 0.0891731 11.1951 0.124428 15.2258C0.157608 19.0193 1.50785 22.1876 4.17517 24.7307C6.84278 27.2738 10.1315 28.5282 14.0414 28.494Z" fill="white"/>
</svg>
